<svg xmlns="http://www.w3.org/2000/svg" viewBox="0 0 15.17 14.52"><defs><style>.cls-1{fill:#ff2a3d;}.cls-2{fill:#0064e9;}.cls-3{fill:#fff;}.cls-4{fill:#15ff27;}</style></defs><g id="Layer_2" data-name="Layer 2"><g id="Layer_1-2" data-name="Layer 1"><path class="cls-1" d="M1.76,5.18s-2,2.14-.14,3.33L3.44,9.7h0L7,9.81V4.48Z"/><path class="cls-2" d="M13.52,9.34s2-2.14.15-3.33L11.83,4.82h0L8.24,4.71V10Z"/><ellipse class="cls-3" cx="4.74" cy="7.7" rx="0.42" ry="0.56"/><ellipse class="cls-3" cx="10.65" cy="7.7" rx="0.42" ry="0.56"/><path class="cls-4" d="M9.67,10.73a14.54,14.54,0,0,1,.18,3.79H8.19V9.27H9.41a17.32,17.32,0,0,0,2.28-.1,1.88,1.88,0,0,0,1.76-1.9,2,2,0,0,0-1.74-1.94,13.27,13.27,0,0,0-2-.1c-.49,0-1,0-1.52,0V3.94a33.75,33.75,0,0,1,4.27,0,3.16,3.16,0,0,1,2.7,3.32,3.24,3.24,0,0,1-2.85,3.29A24.37,24.37,0,0,1,9.67,10.73Z"/><path class="cls-4" d="M5.4,3.82c0-.38-.08-.64-.09-.91V0H7V5.23H4.47a5.6,5.6,0,0,0-1,.06A2,2,0,0,0,1.7,7.23,2,2,0,0,0,3.46,9.17a15,15,0,0,0,2,.1H7v1.31a30.9,30.9,0,0,1-4.2,0A3.23,3.23,0,0,1,0,6.92a3.36,3.36,0,0,1,3.29-3.1C4,3.79,4.65,3.82,5.4,3.82Z"/></g></g></svg>