<svg xmlns="http://www.w3.org/2000/svg" viewBox="0 0 85.12 26.84"><defs><style>.cls-1{fill:#ff2a3d;}.cls-2{fill:#0064e9;}.cls-3{fill:#fff;}.cls-4{fill:#15ff27;}</style></defs><g id="Layer_2" data-name="Layer 2"><g id="Layer_1-2" data-name="Layer 1"><path class="cls-1" d="M45.42,9.12s-3.67,3.94-.27,6.14l3.4,2.2h0l6.62.21V7.82Z"/><path class="cls-2" d="M67.13,16.8s3.68-4,.28-6.15L64,8.46h0l-6.63-.21v9.84Z"/><ellipse class="cls-3" cx="50.98" cy="13.97" rx="0.86" ry="1.23"/><ellipse class="cls-3" cx="61.26" cy="13.97" rx="0.86" ry="1.23"/><path class="cls-4" d="M60.13,19.84c.72,2.3.22,4.61.33,7H57.38v-9.7c.75,0,1.51,0,2.26,0A35,35,0,0,0,63.87,17a3.47,3.47,0,0,0,3.24-3.51,3.63,3.63,0,0,0-3.2-3.6,25.54,25.54,0,0,0-3.72-.18c-.89,0-1.79,0-2.81,0V7.29a61.28,61.28,0,0,1,7.91.07,5.87,5.87,0,0,1,5,6.13A6,6,0,0,1,65,19.58,46.21,46.21,0,0,1,60.13,19.84Z"/><path class="cls-4" d="M52.23,7.06c-.07-.7-.15-1.19-.15-1.68,0-1.74,0-3.49,0-5.38h3.07V9.67c-1.59,0-3.1,0-4.62,0a10.34,10.34,0,0,0-1.85.13,3.68,3.68,0,0,0-3.27,3.55A3.77,3.77,0,0,0,48.65,17a26.89,26.89,0,0,0,3.71.17c.9,0,1.8,0,2.81,0v2.43a57.4,57.4,0,0,1-7.77-.07,6,6,0,0,1-5.12-6.7,6.21,6.21,0,0,1,6.09-5.73C49.61,7,50.85,7.06,52.23,7.06Z"/><path class="cls-4" d="M82.39.35h2.73V19.61H82.39Z"/><path class="cls-4" d="M77.2,19.61V.37H80c0,.57.1,1.16.1,1.75q0,7.54,0,15.09C80.12,19.89,80.12,19.89,77.2,19.61Z"/><path class="cls-4" d="M17.61,19.71h-2.9V7c1.12,0,2.47-1,2.85.83l4.58-1.68V9.1c-.48.07-.92.12-1.36.21-2.21.46-3.4,1.19-3.2,3.69C17.74,15.18,17.61,17.38,17.61,19.71Z"/><path class="cls-4" d="M72.14,6.92C75,6.53,75,6.53,75,9.19V19.61H72.14Z"/><path class="cls-4" d="M75,5.49H72V2.41H75Z"/><path class="cls-4" d="M35,14c0,4.3-2.81,6.75-6.62,6.75A6.14,6.14,0,0,1,22,14.27a6.37,6.37,0,0,1,6.59-6.72A6.12,6.12,0,0,1,35,14Zm-10.34.18c0,2.62,1.43,4.7,3.84,4.7s3.83-2.11,3.83-4.79c0-2.42-1.3-4.71-3.82-4.71S24.7,11.59,24.7,14.22Z"/><path class="cls-4" d="M0,4.86H4.16c4.68,0,7.49,2.62,7.49,7.86s-2.81,8-7.34,8H0ZM4,18.44c3,0,4.77-1.81,4.77-5.72S7,7.15,4,7.15H2.82V18.44Z"/><path class="cls-4" d="M37.19,7c2.89-.39,2.89-.39,2.89,2.27V19.72H37.19Z"/><path class="cls-4" d="M40,5.6H37.09V2.52H40Z"/></g></g></svg>